<svg id="visual" viewBox="0 0 900 600" width="900" height="600" xmlns="http://www.w3.org/2000/svg" xmlns:xlink="http://www.w3.org/1999/xlink" version="1.1"><path d="M0 61L82 37L164 91L245 43L327 67L409 79L491 67L573 49L655 97L736 61L818 49L900 55L900 0L818 0L736 0L655 0L573 0L491 0L409 0L327 0L245 0L164 0L82 0L0 0Z" fill="#001122"></path><path d="M0 139L82 103L164 187L245 103L327 169L409 199L491 211L573 223L655 211L736 175L818 133L900 115L900 53L818 47L736 59L655 95L573 47L491 65L409 77L327 65L245 41L164 89L82 35L0 59Z" fill="#022f42"></path><path d="M0 223L82 235L164 271L245 163L327 217L409 319L491 301L573 283L655 283L736 223L818 259L900 217L900 113L818 131L736 173L655 209L573 221L491 209L409 197L327 167L245 101L164 185L82 101L0 137Z" fill="#005060"></path><path d="M0 349L82 397L164 409L245 343L327 367L409 445L491 415L573 469L655 493L736 367L818 415L900 409L900 215L818 257L736 221L655 281L573 281L491 299L409 317L327 215L245 161L164 269L82 233L0 221Z" fill="#007274"></path><path d="M0 601L82 601L164 601L245 601L327 601L409 601L491 601L573 601L655 601L736 601L818 601L900 601L900 407L818 413L736 365L655 491L573 467L491 413L409 443L327 365L245 341L164 407L82 395L0 347Z" fill="#009473"></path></svg>