<?xml version="1.0" standalone="no"?>
<!DOCTYPE svg PUBLIC "-//W3C//DTD SVG 20010904//EN"
 "http://www.w3.org/TR/2001/REC-SVG-20010904/DTD/svg10.dtd">
<svg version="1.0" xmlns="http://www.w3.org/2000/svg"
 width="1280.000000pt" height="1028.000000pt" viewBox="0 0 1280.000000 1028.000000"
 preserveAspectRatio="xMidYMid meet">
<metadata>
Created by potrace 1.15, written by Peter Selinger 2001-2017
</metadata>
<g transform="translate(0.000000,1028.000000) scale(0.100000,-0.100000)"
fill="#000000" stroke="none">
<path d="M5315 10270 c-332 -24 -608 -74 -940 -167 -171 -49 -266 -91 -352
-156 -143 -107 -265 -321 -308 -539 -15 -72 -21 -89 -39 -94 -11 -4 -93 -41
-181 -83 -827 -397 -1547 -1065 -2145 -1991 -199 -308 -477 -830 -645 -1210
-338 -768 -565 -1526 -654 -2180 -36 -266 -46 -420 -46 -715 1 -384 27 -617
106 -961 24 -104 42 -155 87 -245 350 -693 1067 -1177 2292 -1548 628 -190
1244 -305 1945 -363 200 -16 904 -16 1100 0 753 65 1379 205 1978 443 314 125
656 323 942 544 l80 62 70 -24 c233 -80 440 -71 645 29 98 48 113 60 230 177
198 199 447 509 631 786 474 714 743 1438 845 2275 22 180 30 691 15 887 -46
581 -174 1108 -403 1657 -39 94 -47 121 -36 128 85 56 476 258 580 299 94 37
178 51 303 50 213 -1 355 -36 724 -181 277 -109 359 -124 436 -82 179 97 278
670 190 1096 -44 211 -148 422 -266 537 -413 403 -1760 120 -2562 -540 l-78
-64 -16 23 c-108 154 -337 413 -549 620 -424 415 -866 727 -1399 990 -595 293
-1160 458 -1800 526 -171 18 -616 26 -780 14z m-870 -1120 c289 -91 571 -337
1046 -910 256 -308 552 -680 686 -860 548 -739 1052 -1565 1512 -2480 512
-1017 848 -1891 946 -2463 36 -204 45 -479 21 -617 -21 -117 -63 -242 -107
-317 -73 -122 -237 -267 -499 -440 -302 -200 -560 -323 -948 -452 -502 -167
-992 -262 -1607 -313 -192 -16 -834 -15 -1030 1 -784 64 -1498 209 -2185 446
-882 303 -1418 658 -1740 1150 -112 171 -152 287 -205 585 -47 271 -64 756
-36 1060 80 864 370 1804 857 2780 302 603 596 1056 968 1490 124 145 438 456
576 571 371 308 756 541 1175 712 205 83 223 87 380 82 89 -2 138 -9 190 -25z
m7660 -565 c108 -23 188 -67 234 -128 72 -96 128 -233 157 -384 21 -107 24
-372 6 -483 -17 -101 -50 -232 -62 -244 -6 -6 -78 18 -192 64 -236 94 -355
134 -492 164 -274 62 -509 55 -720 -21 -82 -29 -419 -196 -550 -272 -49 -28
-90 -50 -92 -48 -1 1 -36 63 -77 137 -40 74 -122 214 -181 310 -79 129 -105
179 -98 190 18 30 160 143 285 227 405 271 967 470 1432 507 85 7 277 -4 350
-19z"/>
</g>
</svg>
