<?xml version="1.0" encoding="utf-8"?>
<!-- Generator: Adobe Illustrator 27.8.1, SVG Export Plug-In . SVG Version: 6.00 Build 0)  -->
<svg version="1.1" id="Layer_1" xmlns="http://www.w3.org/2000/svg" xmlns:xlink="http://www.w3.org/1999/xlink" x="0px" y="0px"
	 viewBox="0 0 1280 1028" style="enable-background:new 0 0 1280 1028;" xml:space="preserve">
<g transform="translate(0.000000,1028.000000) scale(0.100000,-0.100000)">
	<path d="M5315,10270c-332-24-608-74-940-167c-171-49-266-91-352-156c-143-107-265-321-308-539c-15-72-21-89-39-94
		c-11-4-93-41-181-83c-827-397-1547-1065-2145-1991c-199-308-477-830-645-1210C367,5262,140,4504,51,3850c-36-266-46-420-46-715
		c1-384,27-617,106-961c24-104,42-155,87-245C548,1236,1265,752,2490,381C3118,191,3734,76,4435,18c200-16,904-16,1100,0
		c753,65,1379,205,1978,443c314,125,656,323,942,544l80,62l70-24c233-80,440-71,645,29c98,48,113,60,230,177
		c198,199,447,509,631,786c474,714,743,1438,845,2275c22,180,30,691,15,887c-46,581-174,1108-403,1657c-39,94-47,121-36,128
		c85,56,476,258,580,299c94,37,178,51,303,50c213-1,355-36,724-181c277-109,359-124,436-82c179,97,278,670,190,1096
		c-44,211-148,422-266,537c-413,403-1760,120-2562-540l-78-64l-16,23c-108,154-337,413-549,620c-424,415-866,727-1399,990
		c-595,293-1160,458-1800,526C5924,10274,5479,10282,5315,10270z"/>
</g>
</svg>
